<svg width="361" height="96" viewBox="0 0 361 96" fill="none" xmlns="http://www.w3.org/2000/svg">
<path d="M17.3603 31.7746C9.85888 39.5884 8.63335 46.467 11.4492 54.8003C11.4492 54.8003 40.1212 28.8375 43.2221 25.9559C44.3052 24.9653 45.2856 23.9885 46.1748 23.0257C53.6763 15.2119 54.9018 8.3333 52.0859 0C52.0916 0.0069271 18.2496 30.8117 17.3603 31.7746Z" fill="#47923D"/>
<path d="M7.29967 72.6794C-0.201784 80.4932 -1.42732 87.3718 1.38857 95.7051C1.38857 95.7051 35.2249 64.8933 36.1142 63.9305C43.6156 56.1167 44.8412 49.2381 42.0253 40.9048C42.0253 40.9117 8.1889 71.7165 7.29967 72.6794Z" fill="#47923D"/>
<path d="M359.538 14.9004C359.538 14.9004 333.664 14.9766 332.866 14.9835C323.524 15.039 318.183 21.2595 316.159 28.6923C316.159 28.6923 330.957 28.6853 338.618 28.6646C339.245 29.0663 339.45 30.1608 338.846 30.8189L311.508 60.8409C311.337 61.028 311.217 61.2773 311.171 61.5544L309.359 71.9243C309.216 72.7486 309.735 73.5314 310.43 73.5314C310.43 73.5314 338.327 73.2058 338.715 73.192C348.183 73.0396 353.552 66.6666 355.547 59.1092C355.547 59.1092 340.653 59.2754 332.861 59.3793C332.336 58.9221 332.211 57.9177 332.769 57.3081L358.415 29.0317C358.586 28.8447 358.705 28.5953 358.751 28.3182L360.598 16.5075C360.752 15.6762 360.233 14.9004 359.538 14.9004Z" fill="#47923D"/>
<path d="M283.799 30.8118C284.278 28.0825 284.779 27.9232 287.293 27.9232C287.293 27.9232 300.13 27.8747 300.136 27.847C305.796 27.0158 311.069 20.8645 312.545 15.2743C312.545 15.2743 292.942 14.7063 290.081 14.7063C278.047 14.7063 273.174 19.2505 271.367 29.5788L270.443 34.8642C268.636 45.1925 272.723 45.9337 281.297 47.8317C281.673 47.9218 287.447 48.4413 293.529 48.9678C294.014 49.0093 294.35 49.5635 294.236 50.1384C293.826 52.1958 292.902 56.6222 292.241 58.541C292.053 59.0882 291.437 59.4831 290.867 59.4831C285.805 59.4831 281.183 59.6078 279.946 59.6355C270.603 59.7879 265.308 66.0708 263.341 73.5243C263.341 73.5243 286.928 73.2611 289.961 73.1918C299.303 73.0394 304.303 66.9436 306.275 59.49L307.626 52.4798L308.002 50.1731H307.991C309.062 42.9758 307.802 39.4638 300.415 37.6697C298.91 37.3372 285.777 34.2823 285.777 34.2823C284.016 33.8667 283.337 33.458 283.611 31.8855L283.799 30.8118Z" fill="#47923D"/>
<path d="M85.8142 30.8118C86.293 28.0825 86.7946 27.9232 89.3084 27.9232C89.3084 27.9232 102.145 27.8747 102.151 27.847C107.811 27.0158 113.084 20.8645 114.56 15.2743C114.56 15.2743 94.9573 14.7063 92.0958 14.7063C80.0627 14.7063 75.189 19.2505 73.3821 29.5788L72.4586 34.8642C70.6517 45.1925 74.7387 45.9337 83.3118 47.8317C83.688 47.9218 89.4623 48.4413 95.5444 48.9678C96.0289 49.0093 96.3653 49.5635 96.2513 50.1384C95.8409 52.1958 94.9174 56.6222 94.2562 58.541C94.0681 59.0882 93.4525 59.4831 92.8824 59.4831C87.8207 59.4831 83.1978 59.6078 81.9609 59.6355C72.6183 59.7879 67.3228 66.0708 65.3562 73.5243C65.3562 73.5243 88.9436 73.2611 91.9761 73.1918C101.319 73.0394 106.318 66.9436 108.29 59.49L109.641 52.4798L110.017 50.1731H110.006C111.077 42.9758 109.818 39.4638 102.43 37.6697C100.925 37.3372 87.7922 34.2823 87.7922 34.2823C86.0308 33.8667 85.3525 33.458 85.6261 31.8855L85.8142 30.8118Z" fill="#47923D"/>
<path d="M253.303 15.697H238.619C236.174 15.697 235.951 15.7801 235.017 18.0107C233.46 21.4811 210.757 73.5314 210.757 73.5314H224.215L229.641 60.3976H246.639L247.466 73.5314H260.861C260.861 73.5314 256.176 19.0982 256.09 18.0107C255.942 15.7732 255.754 15.697 253.303 15.697ZM234.481 47.915L242.923 27.2584H244.895L246.48 47.7695H246.104L246.491 47.915H234.481Z" fill="#47923D"/>
<path d="M141.049 27.2168C130.982 27.2168 122.09 28.4221 122.09 28.4221L120.585 38.6327L135.451 38.5565C138.558 38.5565 140.205 40.4614 139.681 44.1605L128.081 44.4445C119.93 44.5207 115.786 45.1234 113.853 56.1513L113.169 60.079C110.741 73.9747 114.874 73.4414 122.996 73.5176L145.86 73.0673L146.327 70.2964L151.264 40.5792C153.225 29.7106 149.434 27.2168 141.049 27.2168ZM136.107 61.7969L126.856 62.2887C124.496 62.2887 123.612 61.3051 124.097 58.5135L124.342 57.2319C124.923 53.9069 125.869 53.4567 128.417 53.4567L137.743 53.6922L136.107 61.7969Z" fill="#47923D"/>
<path d="M209.343 16.625H200.827C200.16 16.625 199.898 17.3593 199.898 17.3593L183.481 51.1705H182.945L178.357 17.3593C178.357 17.3593 178.351 16.625 177.684 16.625H162.368L152.415 73.5242H164.522L169.926 42.6363H170.593L173.603 72.4644C173.603 72.4644 173.62 73.5242 174.486 73.5242H184.182C184.986 73.5242 185.368 72.4644 185.368 72.4644L198.815 42.6363H199.482L194.078 73.5242H206.185L216.143 16.625H209.343Z" fill="#47923D"/>
</svg>
